{
	"patcher" : 	{
		"fileversion" : 1,
		"appversion" : 		{
			"major" : 9,
			"minor" : 0,
			"revision" : 3,
			"architecture" : "x64",
			"modernui" : 1
		}
,
		"classnamespace" : "box",
		"rect" : [ 34.0, 96.0, 683.0, 572.0 ],
		"openinpresentation" : 1,
		"default_fontname" : "Ableton Sans Medium",
		"gridonopen" : 2,
		"gridsize" : [ 10.0, 10.0 ],
		"subpatcher_template" : " ",
		"helpsidebarclosed" : 1,
		"boxes" : [ 			{
				"box" : 				{
					"bgmode" : 0,
					"border" : 1,
					"clickthrough" : 0,
					"embed" : 1,
					"enablehscroll" : 0,
					"enablevscroll" : 0,
					"id" : "obj-1",
					"lockeddragscroll" : 0,
					"lockedsize" : 0,
					"maxclass" : "bpatcher",
					"name" : "mo.playlist~.maxpat",
					"numinlets" : 1,
					"numoutlets" : 1,
					"offset" : [ 0.0, 0.0 ],
					"outlettype" : [ "multichannelsignal" ],
					"patcher" : 					{
						"fileversion" : 1,
						"appversion" : 						{
							"major" : 9,
							"minor" : 0,
							"revision" : 3,
							"architecture" : "x64",
							"modernui" : 1
						}
,
						"classnamespace" : "box",
						"rect" : [ 100.0, 139.0, 214.0, 70.0 ],
						"openrect" : [ 0.0, 0.0, 214.0, 70.0 ],
						"openinpresentation" : 1,
						"default_fontname" : "Ableton Sans Medium",
						"gridonopen" : 2,
						"gridsize" : [ 10.0, 10.0 ],
						"toolbars_unpinned_last_save" : 3,
						"subpatcher_template" : " ",
						"helpsidebarclosed" : 1,
						"boxes" : [ 							{
								"box" : 								{
									"id" : "obj-13",
									"maxclass" : "newobj",
									"numinlets" : 2,
									"numoutlets" : 2,
									"outlettype" : [ "", "" ],
									"patching_rect" : [ 636.25, 140.772348374128455, 67.0, 23.0 ],
									"text" : "route done"
								}

							}
, 							{
								"box" : 								{
									"id" : "obj-7",
									"maxclass" : "newobj",
									"numinlets" : 1,
									"numoutlets" : 1,
									"outlettype" : [ "bang" ],
									"patching_rect" : [ 410.0, 140.772348374128455, 58.0, 23.0 ],
									"text" : "loadbang"
								}

							}
, 							{
								"box" : 								{
									"accentcolor" : [ 0.501960784313725, 0.501960784313725, 0.501960784313725, 1.0 ],
									"allowreorder" : 2,
									"basictuning" : 440,
									"bgcolor" : [ 0.0, 0.0, 0.0, 0.0 ],
									"clipheight" : 38.0,
									"color" : [ 0.85, 0.85, 0.85, 1.0 ],
									"data" : 									{
										"clips" : [ 											{
												"absolutepath" : "brushes.aif",
												"filename" : "brushes.aif",
												"filekind" : "audiofile",
												"id" : "u501007193",
												"loop" : 1,
												"content_state" : 												{
													"loop" : 1
												}

											}
, 											{
												"absolutepath" : "duduk.aif",
												"filename" : "duduk.aif",
												"filekind" : "audiofile",
												"id" : "u192002236",
												"loop" : 0,
												"content_state" : 												{

												}

											}
, 											{
												"absolutepath" : "drumLoop.aif",
												"filename" : "drumLoop.aif",
												"filekind" : "audiofile",
												"id" : "u633002169",
												"loop" : 0,
												"content_state" : 												{

												}

											}
, 											{
												"absolutepath" : "rainstick.aif",
												"filename" : "rainstick.aif",
												"filekind" : "audiofile",
												"id" : "u458002318",
												"loop" : 0,
												"content_state" : 												{

												}

											}
 ]
									}
,
									"elementcolor" : [ 0.0, 0.0, 0.0, 0.0 ],
									"expansion" : "static",
									"followglobaltempo" : 0,
									"fontname" : "Ableton Sans Medium",
									"fontsize" : 9.5,
									"formantcorrection" : 0,
									"id" : "obj-6",
									"maxclass" : "mc.playlist~",
									"mode" : "basic",
									"numinlets" : 1,
									"numoutlets" : 4,
									"originallength" : [ 0.0, "ticks" ],
									"originaltempo" : 120.0,
									"outlettype" : [ "multichannelsignal", "signal", "", "dictionary" ],
									"parameter_enable" : 0,
									"patching_rect" : [ 203.0, 256.272348374128342, 193.0, 38.0 ],
									"pitchcorrection" : 0,
									"presentation" : 1,
									"presentation_rect" : [ 5.0, 27.0, 203.0, 152.0 ],
									"quality" : "basic",
									"saved_attribute_attributes" : 									{
										"candicane2" : 										{
											"expression" : ""
										}
,
										"candicane3" : 										{
											"expression" : ""
										}
,
										"candicane4" : 										{
											"expression" : ""
										}
,
										"candicane5" : 										{
											"expression" : ""
										}
,
										"candicane6" : 										{
											"expression" : ""
										}
,
										"candicane7" : 										{
											"expression" : ""
										}
,
										"candicane8" : 										{
											"expression" : ""
										}
,
										"color" : 										{
											"expression" : "themecolor.live_control_fg"
										}
,
										"selectioncolor" : 										{
											"expression" : "themecolor.live_value_bar"
										}

									}
,
									"selectioncolor" : [ 0.594473705410263, 0.720560630419913, 0.928309050695498, 1.0 ],
									"textcolor" : [ 1.0, 1.0, 1.0, 1.0 ],
									"timestretch" : [ 0 ],
									"waveformdisplay" : 0
								}

							}
, 							{
								"box" : 								{
									"id" : "obj-52",
									"maxclass" : "newobj",
									"numinlets" : 2,
									"numoutlets" : 2,
									"outlettype" : [ "", "" ],
									"patching_rect" : [ 377.0, 449.0, 94.0, 23.0 ],
									"text" : "route dictionary"
								}

							}
, 							{
								"box" : 								{
									"id" : "obj-24",
									"maxclass" : "number",
									"numinlets" : 1,
									"numoutlets" : 2,
									"outlettype" : [ "", "bang" ],
									"parameter_enable" : 0,
									"patching_rect" : [ 377.0, 535.0, 50.0, 23.0 ]
								}

							}
, 							{
								"box" : 								{
									"id" : "obj-20",
									"maxclass" : "newobj",
									"numinlets" : 1,
									"numoutlets" : 1,
									"outlettype" : [ "" ],
									"patching_rect" : [ 130.0, 141.0, 55.0, 23.0 ],
									"text" : "pvar size"
								}

							}
, 							{
								"box" : 								{
									"id" : "obj-18",
									"maxclass" : "newobj",
									"numinlets" : 1,
									"numoutlets" : 2,
									"outlettype" : [ "", "" ],
									"patcher" : 									{
										"fileversion" : 1,
										"appversion" : 										{
											"major" : 9,
											"minor" : 0,
											"revision" : 3,
											"architecture" : "x64",
											"modernui" : 1
										}
,
										"classnamespace" : "box",
										"rect" : [ 59.0, 106.0, 365.0, 336.0 ],
										"gridsize" : [ 15.0, 15.0 ],
										"subpatcher_template" : " ",
										"boxes" : [ 											{
												"box" : 												{
													"comment" : "",
													"id" : "obj-1",
													"index" : 2,
													"maxclass" : "outlet",
													"numinlets" : 1,
													"numoutlets" : 0,
													"patching_rect" : [ 190.0, 288.0, 30.0, 30.0 ]
												}

											}
, 											{
												"box" : 												{
													"id" : "obj-7",
													"maxclass" : "newobj",
													"numinlets" : 4,
													"numoutlets" : 1,
													"outlettype" : [ "" ],
													"patching_rect" : [ 190.0, 85.0, 84.0, 22.0 ],
													"text" : "pak 5 27 204 i"
												}

											}
, 											{
												"box" : 												{
													"id" : "obj-13",
													"maxclass" : "newobj",
													"numinlets" : 1,
													"numoutlets" : 1,
													"outlettype" : [ "" ],
													"patching_rect" : [ 190.0, 125.0, 153.0, 22.0 ],
													"text" : "prepend presentation_rect"
												}

											}
, 											{
												"box" : 												{
													"id" : "obj-50",
													"maxclass" : "newobj",
													"numinlets" : 4,
													"numoutlets" : 1,
													"outlettype" : [ "" ],
													"patching_rect" : [ 20.0, 85.0, 84.0, 22.0 ],
													"text" : "pak 5 27 203 i"
												}

											}
, 											{
												"box" : 												{
													"id" : "obj-48",
													"maxclass" : "newobj",
													"numinlets" : 1,
													"numoutlets" : 1,
													"outlettype" : [ "" ],
													"patching_rect" : [ 20.0, 125.0, 153.0, 22.0 ],
													"text" : "prepend presentation_rect"
												}

											}
, 											{
												"box" : 												{
													"comment" : "",
													"id" : "obj-14",
													"index" : 1,
													"maxclass" : "inlet",
													"numinlets" : 0,
													"numoutlets" : 1,
													"outlettype" : [ "" ],
													"patching_rect" : [ 85.0, 20.0, 30.0, 30.0 ]
												}

											}
, 											{
												"box" : 												{
													"comment" : "",
													"id" : "obj-15",
													"index" : 1,
													"maxclass" : "outlet",
													"numinlets" : 1,
													"numoutlets" : 0,
													"patching_rect" : [ 20.0, 288.0, 30.0, 30.0 ]
												}

											}
 ],
										"lines" : [ 											{
												"patchline" : 												{
													"destination" : [ "obj-1", 0 ],
													"source" : [ "obj-13", 0 ]
												}

											}
, 											{
												"patchline" : 												{
													"destination" : [ "obj-50", 3 ],
													"source" : [ "obj-14", 0 ]
												}

											}
, 											{
												"patchline" : 												{
													"destination" : [ "obj-1", 0 ],
													"order" : 0,
													"source" : [ "obj-48", 0 ]
												}

											}
, 											{
												"patchline" : 												{
													"destination" : [ "obj-15", 0 ],
													"order" : 1,
													"source" : [ "obj-48", 0 ]
												}

											}
, 											{
												"patchline" : 												{
													"destination" : [ "obj-48", 0 ],
													"source" : [ "obj-50", 0 ]
												}

											}
, 											{
												"patchline" : 												{
													"destination" : [ "obj-13", 0 ],
													"source" : [ "obj-7", 0 ]
												}

											}
 ],
										"originid" : "pat-8"
									}
,
									"patching_rect" : [ 130.0, 196.0, 38.0, 23.0 ],
									"saved_object_attributes" : 									{
										"globalpatchername" : ""
									}
,
									"text" : "p size"
								}

							}
, 							{
								"box" : 								{
									"id" : "obj-44",
									"maxclass" : "newobj",
									"numinlets" : 2,
									"numoutlets" : 1,
									"outlettype" : [ "" ],
									"patching_rect" : [ 339.0, 650.0, 57.0, 23.0 ],
									"text" : "pak 182 i"
								}

							}
, 							{
								"box" : 								{
									"id" : "obj-38",
									"maxclass" : "newobj",
									"numinlets" : 2,
									"numoutlets" : 1,
									"outlettype" : [ "int" ],
									"patching_rect" : [ 377.0, 573.0, 31.0, 23.0 ],
									"text" : "* 38"
								}

							}
, 							{
								"box" : 								{
									"id" : "obj-37",
									"maxclass" : "message",
									"numinlets" : 2,
									"numoutlets" : 1,
									"outlettype" : [ "" ],
									"patching_rect" : [ 410.0, 196.422348588705063, 68.0, 23.0 ],
									"text" : "getcontent"
								}

							}
, 							{
								"box" : 								{
									"id" : "obj-28",
									"maxclass" : "number",
									"numinlets" : 1,
									"numoutlets" : 2,
									"outlettype" : [ "", "bang" ],
									"parameter_enable" : 0,
									"patching_rect" : [ 377.0, 612.0, 50.0, 23.0 ],
									"varname" : "size"
								}

							}
, 							{
								"box" : 								{
									"id" : "obj-29",
									"maxclass" : "newobj",
									"numinlets" : 2,
									"numoutlets" : 2,
									"outlettype" : [ "", "" ],
									"patching_rect" : [ 377.0, 500.0, 41.0, 23.0 ],
									"text" : "zl.len"
								}

							}
, 							{
								"box" : 								{
									"id" : "obj-30",
									"maxclass" : "newobj",
									"numinlets" : 1,
									"numoutlets" : 2,
									"outlettype" : [ "", "" ],
									"patching_rect" : [ 377.0, 408.0, 109.0, 23.0 ],
									"saved_object_attributes" : 									{
										"legacy" : 1
									}
,
									"text" : "dict.unpack clips:"
								}

							}
, 							{
								"box" : 								{
									"id" : "obj-5",
									"maxclass" : "newobj",
									"numinlets" : 1,
									"numoutlets" : 1,
									"outlettype" : [ "" ],
									"patching_rect" : [ 339.0, 690.0, 82.0, 23.0 ],
									"text" : "a-mo.settings"
								}

							}
, 							{
								"box" : 								{
									"id" : "obj-22",
									"maxclass" : "newobj",
									"numinlets" : 1,
									"numoutlets" : 2,
									"outlettype" : [ "", "" ],
									"patching_rect" : [ 396.0, 740.0, 70.0, 23.0 ],
									"save" : [ "#N", "thispatcher", ";", "#Q", "end", ";" ],
									"text" : "thispatcher"
								}

							}
, 							{
								"box" : 								{
									"id" : "obj-23",
									"maxclass" : "newobj",
									"numinlets" : 1,
									"numoutlets" : 0,
									"patching_rect" : [ 339.0, 715.0, 127.0, 23.0 ],
									"text" : "universal @descend 1"
								}

							}
, 							{
								"box" : 								{
									"id" : "obj-4",
									"maxclass" : "newobj",
									"numinlets" : 1,
									"numoutlets" : 3,
									"outlettype" : [ "", "", "" ],
									"patching_rect" : [ 576.0, 304.272348374128342, 202.0, 23.0 ],
									"saved_object_attributes" : 									{
										"initial" : [ 0 ],
										"parameter_enable" : 0,
										"parameter_mappable" : 0
									}
,
									"text" : "pattr mute @bindto mute- @initial 0",
									"varname" : "mute"
								}

							}
, 							{
								"box" : 								{
									"activebgcolor" : [ 0.647058823529412, 0.647058823529412, 0.647058823529412, 0.0 ],
									"activebgoncolor" : [ 1.0, 0.4, 0.3, 1.0 ],
									"appearance" : 1,
									"bordercolor" : [ 0.0, 0.0, 0.0, 1.0 ],
									"focusbordercolor" : [ 0.313725, 0.313725, 0.313725, 0.0 ],
									"id" : "obj-3",
									"maxclass" : "live.text",
									"numinlets" : 1,
									"numoutlets" : 2,
									"outlettype" : [ "", "" ],
									"parameter_enable" : 1,
									"patching_rect" : [ 35.25, 104.322348445653972, 61.0, 15.0 ],
									"pictures" : [ "unlock.svg", "lock.svg" ],
									"presentation" : 1,
									"presentation_rect" : [ 4.0, 4.0, 59.744737782587066, 15.0 ],
									"remapsvgcolors" : 1,
									"saved_attribute_attributes" : 									{
										"activebgcolor" : 										{
											"expression" : ""
										}
,
										"activebgoncolor" : 										{
											"expression" : "themecolor.live_active_automation"
										}
,
										"bordercolor" : 										{
											"expression" : ""
										}
,
										"focusbordercolor" : 										{
											"expression" : ""
										}
,
										"valueof" : 										{
											"parameter_enum" : [ "val1", "val2" ],
											"parameter_longname" : "live.text[605]",
											"parameter_mmax" : 1,
											"parameter_modmode" : 0,
											"parameter_osc_name" : "<default>",
											"parameter_shortname" : "live.text",
											"parameter_type" : 2
										}

									}
,
									"text" : "playlist~",
									"texton" : "playlist~",
									"varname" : "mute-"
								}

							}
, 							{
								"box" : 								{
									"id" : "obj-1",
									"maxclass" : "newobj",
									"numinlets" : 1,
									"numoutlets" : 3,
									"outlettype" : [ "", "", "" ],
									"patching_rect" : [ 606.0, 256.272348374128342, 194.0, 23.0 ],
									"saved_object_attributes" : 									{
										"initial" : [ 1 ],
										"parameter_enable" : 0,
										"parameter_mappable" : 0
									}
,
									"text" : "pattr loop @bindto loop- @initial 1",
									"varname" : "loop"
								}

							}
, 							{
								"box" : 								{
									"activebgcolor" : [ 0.309803921568627, 0.63921568627451, 0.988235294117647, 0.0 ],
									"activebgoncolor" : [ 0.922234290352602, 0.71007200526417, 0.329758341965716, 1.0 ],
									"bordercolor" : [ 0.0, 0.0, 0.0, 1.0 ],
									"focusbordercolor" : [ 0.313725, 0.313725, 0.313725, 0.0 ],
									"id" : "obj-33",
									"maxclass" : "live.text",
									"numinlets" : 1,
									"numoutlets" : 2,
									"outlettype" : [ "", "" ],
									"parameter_enable" : 1,
									"patching_rect" : [ 347.0, 104.322348445653972, 44.0, 15.0 ],
									"pictures" : [ "loop.svg", "loop.svg" ],
									"remapsvgcolors" : 1,
									"saved_attribute_attributes" : 									{
										"activebgcolor" : 										{
											"expression" : ""
										}
,
										"activebgoncolor" : 										{
											"expression" : "themecolor.theme_selectioncolor"
										}
,
										"bordercolor" : 										{
											"expression" : ""
										}
,
										"focusbordercolor" : 										{
											"expression" : ""
										}
,
										"valueof" : 										{
											"parameter_enum" : [ "val1", "val2" ],
											"parameter_longname" : "live.text[604]",
											"parameter_mmax" : 1,
											"parameter_modmode" : 0,
											"parameter_osc_name" : "<default>",
											"parameter_shortname" : "live.text",
											"parameter_type" : 2
										}

									}
,
									"text" : "loop",
									"texton" : "loop",
									"usesvgviewbox" : 1,
									"varname" : "loop-"
								}

							}
, 							{
								"box" : 								{
									"id" : "obj-12",
									"maxclass" : "message",
									"numinlets" : 2,
									"numoutlets" : 1,
									"outlettype" : [ "" ],
									"patching_rect" : [ 347.0, 196.422348588705063, 49.0, 23.0 ],
									"text" : "loop $1"
								}

							}
, 							{
								"box" : 								{
									"id" : "obj-11",
									"maxclass" : "newobj",
									"numinlets" : 1,
									"numoutlets" : 1,
									"outlettype" : [ "resume" ],
									"patching_rect" : [ 259.0, 196.422348588705063, 55.0, 23.0 ],
									"text" : "t resume"
								}

							}
, 							{
								"box" : 								{
									"id" : "obj-10",
									"maxclass" : "newobj",
									"numinlets" : 1,
									"numoutlets" : 1,
									"outlettype" : [ "pause" ],
									"patching_rect" : [ 203.0, 196.422348588705063, 48.0, 23.0 ],
									"text" : "t pause"
								}

							}
, 							{
								"box" : 								{
									"id" : "obj-8",
									"maxclass" : "newobj",
									"numinlets" : 3,
									"numoutlets" : 3,
									"outlettype" : [ "bang", "bang", "" ],
									"patching_rect" : [ 203.0, 140.772348374128455, 43.0, 23.0 ],
									"text" : "sel 0 1"
								}

							}
, 							{
								"box" : 								{
									"activebgcolor" : [ 1.0, 0.345098039215686, 0.298039215686275, 0.0 ],
									"activebgoncolor" : [ 1.0, 0.4, 0.3, 1.0 ],
									"activetextcolor" : [ 0.9, 0.9, 0.9, 1.0 ],
									"bordercolor" : [ 0.0, 0.0, 0.0, 1.0 ],
									"focusbordercolor" : [ 0.313725, 0.313725, 0.313725, 0.0 ],
									"id" : "obj-42",
									"maxclass" : "live.text",
									"numinlets" : 1,
									"numoutlets" : 2,
									"outlettype" : [ "", "" ],
									"parameter_enable" : 1,
									"patching_rect" : [ 203.0, 104.322348445653972, 44.0, 15.0 ],
									"pictures" : [ "fwdarrow.svg", "pause.svg" ],
									"saved_attribute_attributes" : 									{
										"activebgcolor" : 										{
											"expression" : ""
										}
,
										"activebgoncolor" : 										{
											"expression" : "themecolor.live_active_automation"
										}
,
										"activetextcolor" : 										{
											"expression" : ""
										}
,
										"bordercolor" : 										{
											"expression" : ""
										}
,
										"focusbordercolor" : 										{
											"expression" : ""
										}
,
										"textcolor" : 										{
											"expression" : ""
										}
,
										"valueof" : 										{
											"parameter_enum" : [ "val1", "val2" ],
											"parameter_longname" : "live.text[782]",
											"parameter_mmax" : 1,
											"parameter_modmode" : 0,
											"parameter_osc_name" : "<default>",
											"parameter_shortname" : "live.text",
											"parameter_type" : 2
										}

									}
,
									"text" : "play",
									"textcolor" : [ 0.0, 0.0, 0.0, 1.0 ],
									"texton" : "stop",
									"usepicture" : 1,
									"varname" : "PlayStop-TG"
								}

							}
, 							{
								"box" : 								{
									"comment" : "(int) track number to playback, (message) loop, mute",
									"id" : "obj-2",
									"index" : 1,
									"maxclass" : "inlet",
									"numinlets" : 0,
									"numoutlets" : 1,
									"outlettype" : [ "" ],
									"patching_rect" : [ 611.69264309008895, 27.872348517179489, 30.0, 30.0 ]
								}

							}
, 							{
								"box" : 								{
									"comment" : "(mc.~) signal",
									"id" : "obj-31",
									"index" : 1,
									"maxclass" : "outlet",
									"numinlets" : 1,
									"numoutlets" : 0,
									"patching_rect" : [ 35.0, 627.0, 30.0, 30.0 ]
								}

							}
, 							{
								"box" : 								{
									"id" : "obj-19",
									"maxclass" : "newobj",
									"numinlets" : 2,
									"numoutlets" : 1,
									"outlettype" : [ "multichannelsignal" ],
									"patching_rect" : [ 35.0, 408.0, 187.0, 23.0 ],
									"text" : "mc.selector~ 1 1 @ramptime 300"
								}

							}
, 							{
								"box" : 								{
									"id" : "obj-25",
									"maxclass" : "newobj",
									"numinlets" : 4,
									"numoutlets" : 4,
									"outlettype" : [ "", "", "", "" ],
									"patching_rect" : [ 545.25, 100.772348374128455, 110.0, 23.0 ],
									"text" : "route int mute loop"
								}

							}
, 							{
								"box" : 								{
									"id" : "obj-26",
									"maxclass" : "newobj",
									"numinlets" : 1,
									"numoutlets" : 2,
									"outlettype" : [ "", "" ],
									"patching_rect" : [ 491.25, 60.322348445653972, 73.0, 23.0 ],
									"text" : "patcherargs"
								}

							}
, 							{
								"box" : 								{
									"id" : "obj-27",
									"maxclass" : "newobj",
									"numinlets" : 1,
									"numoutlets" : 1,
									"outlettype" : [ "bang" ],
									"patching_rect" : [ 491.25, 27.872348517179489, 58.0, 23.0 ],
									"text" : "loadbang"
								}

							}
, 							{
								"box" : 								{
									"id" : "obj-9",
									"maxclass" : "newobj",
									"numinlets" : 2,
									"numoutlets" : 1,
									"outlettype" : [ "int" ],
									"patching_rect" : [ 35.25, 141.0, 29.5, 23.0 ],
									"text" : "!- 1"
								}

							}
, 							{
								"box" : 								{
									"angle" : 270.0,
									"bgcolor" : [ 0.2, 0.2, 0.2, 0.0 ],
									"border" : 1,
									"bordercolor" : [ 0.0, 0.0, 0.0, 1.0 ],
									"id" : "obj-91",
									"maxclass" : "panel",
									"mode" : 0,
									"numinlets" : 1,
									"numoutlets" : 0,
									"patching_rect" : [ 203.0, 256.272348374128342, 193.0, 38.0 ],
									"presentation" : 1,
									"presentation_rect" : [ 5.0, 27.0, 203.0, 152.0 ],
									"proportion" : 0.5,
									"rounded" : 0
								}

							}
, 							{
								"box" : 								{
									"id" : "obj-17",
									"linecolor" : [ 0.0, 0.0, 0.0, 1.0 ],
									"maxclass" : "live.line",
									"numinlets" : 1,
									"numoutlets" : 0,
									"patching_rect" : [ 491.25, 20.872348517179489, 150.442643090089064, 5.0 ],
									"presentation" : 1,
									"presentation_rect" : [ 0.0, 22.0, 214.0, 5.0 ],
									"saved_attribute_attributes" : 									{
										"linecolor" : 										{
											"expression" : ""
										}

									}

								}

							}
 ],
						"lines" : [ 							{
								"patchline" : 								{
									"destination" : [ "obj-6", 0 ],
									"midpoints" : [ 212.5, 222.0, 212.5, 222.0 ],
									"source" : [ "obj-10", 0 ]
								}

							}
, 							{
								"patchline" : 								{
									"destination" : [ "obj-6", 0 ],
									"midpoints" : [ 268.5, 243.0, 212.5, 243.0 ],
									"source" : [ "obj-11", 0 ]
								}

							}
, 							{
								"patchline" : 								{
									"destination" : [ "obj-6", 0 ],
									"midpoints" : [ 356.5, 243.0, 212.5, 243.0 ],
									"source" : [ "obj-12", 0 ]
								}

							}
, 							{
								"patchline" : 								{
									"destination" : [ "obj-6", 0 ],
									"midpoints" : [ 693.75, 243.0, 212.5, 243.0 ],
									"source" : [ "obj-13", 1 ]
								}

							}
, 							{
								"patchline" : 								{
									"destination" : [ "obj-6", 0 ],
									"midpoints" : [ 158.5, 243.0, 212.5, 243.0 ],
									"source" : [ "obj-18", 1 ]
								}

							}
, 							{
								"patchline" : 								{
									"destination" : [ "obj-91", 0 ],
									"midpoints" : [ 139.5, 243.0, 212.5, 243.0 ],
									"source" : [ "obj-18", 0 ]
								}

							}
, 							{
								"patchline" : 								{
									"destination" : [ "obj-31", 0 ],
									"midpoints" : [ 44.5, 432.0, 44.5, 432.0 ],
									"source" : [ "obj-19", 0 ]
								}

							}
, 							{
								"patchline" : 								{
									"destination" : [ "obj-25", 0 ],
									"midpoints" : [ 621.19264309008895, 87.0, 554.75, 87.0 ],
									"source" : [ "obj-2", 0 ]
								}

							}
, 							{
								"patchline" : 								{
									"destination" : [ "obj-18", 0 ],
									"midpoints" : [ 139.5, 165.0, 139.5, 165.0 ],
									"source" : [ "obj-20", 0 ]
								}

							}
, 							{
								"patchline" : 								{
									"destination" : [ "obj-38", 0 ],
									"midpoints" : [ 386.5, 561.0, 386.5, 561.0 ],
									"source" : [ "obj-24", 0 ]
								}

							}
, 							{
								"patchline" : 								{
									"destination" : [ "obj-1", 0 ],
									"midpoints" : [ 615.416666666666629, 126.0, 615.5, 126.0 ],
									"source" : [ "obj-25", 2 ]
								}

							}
, 							{
								"patchline" : 								{
									"destination" : [ "obj-13", 0 ],
									"midpoints" : [ 645.75, 126.0, 645.75, 126.0 ],
									"source" : [ "obj-25", 3 ]
								}

							}
, 							{
								"patchline" : 								{
									"destination" : [ "obj-4", 0 ],
									"midpoints" : [ 585.083333333333371, 126.0, 585.5, 126.0 ],
									"source" : [ "obj-25", 1 ]
								}

							}
, 							{
								"patchline" : 								{
									"destination" : [ "obj-6", 0 ],
									"midpoints" : [ 554.75, 243.0, 212.5, 243.0 ],
									"source" : [ "obj-25", 0 ]
								}

							}
, 							{
								"patchline" : 								{
									"destination" : [ "obj-25", 0 ],
									"midpoints" : [ 554.75, 84.0, 554.75, 84.0 ],
									"source" : [ "obj-26", 1 ]
								}

							}
, 							{
								"patchline" : 								{
									"destination" : [ "obj-26", 0 ],
									"midpoints" : [ 500.75, 51.0, 500.75, 51.0 ],
									"source" : [ "obj-27", 0 ]
								}

							}
, 							{
								"patchline" : 								{
									"destination" : [ "obj-44", 1 ],
									"midpoints" : [ 386.5, 636.0, 386.5, 636.0 ],
									"order" : 1,
									"source" : [ "obj-28", 0 ]
								}

							}
, 							{
								"patchline" : 								{
									"destination" : [ "obj-24", 0 ],
									"midpoints" : [ 386.5, 525.0, 386.5, 525.0 ],
									"source" : [ "obj-29", 0 ]
								}

							}
, 							{
								"patchline" : 								{
									"destination" : [ "obj-9", 0 ],
									"midpoints" : [ 44.75, 120.0, 44.75, 120.0 ],
									"source" : [ "obj-3", 0 ]
								}

							}
, 							{
								"patchline" : 								{
									"destination" : [ "obj-52", 0 ],
									"midpoints" : [ 386.5, 432.0, 386.5, 432.0 ],
									"source" : [ "obj-30", 0 ]
								}

							}
, 							{
								"patchline" : 								{
									"destination" : [ "obj-12", 0 ],
									"midpoints" : [ 356.5, 120.0, 356.5, 120.0 ],
									"source" : [ "obj-33", 0 ]
								}

							}
, 							{
								"patchline" : 								{
									"destination" : [ "obj-6", 0 ],
									"midpoints" : [ 419.5, 243.0, 212.5, 243.0 ],
									"source" : [ "obj-37", 0 ]
								}

							}
, 							{
								"patchline" : 								{
									"destination" : [ "obj-28", 0 ],
									"midpoints" : [ 386.5, 597.0, 386.5, 597.0 ],
									"source" : [ "obj-38", 0 ]
								}

							}
, 							{
								"patchline" : 								{
									"destination" : [ "obj-8", 0 ],
									"midpoints" : [ 212.5, 120.0, 212.5, 120.0 ],
									"source" : [ "obj-42", 0 ]
								}

							}
, 							{
								"patchline" : 								{
									"destination" : [ "obj-5", 0 ],
									"midpoints" : [ 348.5, 675.0, 348.5, 675.0 ],
									"source" : [ "obj-44", 0 ]
								}

							}
, 							{
								"patchline" : 								{
									"destination" : [ "obj-23", 0 ],
									"midpoints" : [ 348.5, 714.0, 348.5, 714.0 ],
									"source" : [ "obj-5", 0 ]
								}

							}
, 							{
								"patchline" : 								{
									"destination" : [ "obj-29", 0 ],
									"midpoints" : [ 461.5, 486.0, 386.5, 486.0 ],
									"source" : [ "obj-52", 1 ]
								}

							}
, 							{
								"patchline" : 								{
									"destination" : [ "obj-29", 0 ],
									"midpoints" : [ 386.5, 474.0, 386.5, 474.0 ],
									"source" : [ "obj-52", 0 ]
								}

							}
, 							{
								"patchline" : 								{
									"destination" : [ "obj-19", 1 ],
									"midpoints" : [ 212.5, 297.0, 212.5, 297.0 ],
									"source" : [ "obj-6", 0 ]
								}

							}
, 							{
								"patchline" : 								{
									"destination" : [ "obj-30", 0 ],
									"midpoints" : [ 386.5, 297.0, 386.5, 297.0 ],
									"source" : [ "obj-6", 3 ]
								}

							}
, 							{
								"patchline" : 								{
									"destination" : [ "obj-37", 0 ],
									"midpoints" : [ 419.5, 165.0, 419.5, 165.0 ],
									"source" : [ "obj-7", 0 ]
								}

							}
, 							{
								"patchline" : 								{
									"destination" : [ "obj-10", 0 ],
									"midpoints" : [ 212.5, 165.0, 212.5, 165.0 ],
									"source" : [ "obj-8", 0 ]
								}

							}
, 							{
								"patchline" : 								{
									"destination" : [ "obj-11", 0 ],
									"midpoints" : [ 224.5, 183.0, 268.5, 183.0 ],
									"source" : [ "obj-8", 1 ]
								}

							}
, 							{
								"patchline" : 								{
									"destination" : [ "obj-19", 0 ],
									"midpoints" : [ 44.75, 165.0, 44.5, 165.0 ],
									"source" : [ "obj-9", 0 ]
								}

							}
 ],
						"originid" : "pat-6"
					}
,
					"patching_rect" : [ 20.0, 500.0, 214.0, 184.0 ],
					"presentation" : 1,
					"presentation_rect" : [ 450.0, 246.0, 214.0, 184.0 ],
					"varname" : "mo.playlist~",
					"viewvisibility" : 1
				}

			}
, 			{
				"box" : 				{
					"bgmode" : 0,
					"border" : 1,
					"clickthrough" : 0,
					"enablehscroll" : 0,
					"enablevscroll" : 0,
					"id" : "obj-56",
					"lockeddragscroll" : 0,
					"lockedsize" : 0,
					"maxclass" : "bpatcher",
					"name" : "mo.dac~.maxpat",
					"numinlets" : 2,
					"numoutlets" : 1,
					"offset" : [ 0.0, 0.0 ],
					"outlettype" : [ "multichannelsignal" ],
					"patching_rect" : [ 20.0, 590.0, 214.0, 70.0 ],
					"presentation" : 1,
					"presentation_rect" : [ 450.0, 483.0, 214.0, 70.0 ],
					"varname" : "mo.dac~",
					"viewvisibility" : 1
				}

			}
, 			{
				"box" : 				{
					"bubble" : 1,
					"fontname" : "Ableton Sans Medium",
					"id" : "obj-18",
					"linecount" : 2,
					"maxclass" : "comment",
					"numinlets" : 1,
					"numoutlets" : 0,
					"patching_rect" : [ 309.5, 415.532565717592547, 112.0, 39.0 ],
					"presentation" : 1,
					"presentation_linecount" : 2,
					"presentation_rect" : [ 272.5, 167.000000000000114, 112.0, 39.0 ],
					"text" : "• click, and drag\n• watch output"
				}

			}
, 			{
				"box" : 				{
					"args" : [ 2, 4 ],
					"bgmode" : 0,
					"border" : 1,
					"clickthrough" : 0,
					"enablehscroll" : 0,
					"enablevscroll" : 0,
					"id" : "obj-36",
					"lockeddragscroll" : 0,
					"lockedsize" : 0,
					"maxclass" : "bpatcher",
					"name" : "mo.classify.maxpat",
					"numinlets" : 3,
					"numoutlets" : 1,
					"offset" : [ 0.0, 0.0 ],
					"outlettype" : [ "" ],
					"patching_rect" : [ 20.0, 310.0, 214.0, 170.0 ],
					"presentation" : 1,
					"presentation_rect" : [ 20.0, 246.0, 214.0, 170.0 ],
					"varname" : "mo.classify",
					"viewvisibility" : 1
				}

			}
, 			{
				"box" : 				{
					"bgcolor" : [ 1.0, 0.788235, 0.470588, 1.0 ],
					"bgoncolor" : [ 0.55, 0.55, 0.55, 1.0 ],
					"fontname" : "Ableton Sans Medium",
					"fontsize" : 9.5,
					"hint" : "",
					"id" : "obj-19",
					"ignoreclick" : 1,
					"legacytextcolor" : 1,
					"maxclass" : "textbutton",
					"numinlets" : 1,
					"numoutlets" : 3,
					"outlettype" : [ "", "", "int" ],
					"parameter_enable" : 0,
					"patching_rect" : [ 280.0, 425.03256571759249, 20.0, 20.0 ],
					"presentation" : 1,
					"presentation_rect" : [ 244.0, 176.500000000000057, 20.0, 20.0 ],
					"rounded" : 60.0,
					"text" : "6",
					"textcolor" : [ 0.34902, 0.34902, 0.34902, 1.0 ],
					"textoncolor" : [ 1.0, 1.0, 1.0, 1.0 ],
					"textovercolor" : [ 0.1, 0.1, 0.1, 1.0 ],
					"usebgoncolor" : 1,
					"usetextovercolor" : 1
				}

			}
, 			{
				"box" : 				{
					"bubble" : 1,
					"fontname" : "Ableton Sans Medium",
					"id" : "obj-21",
					"linecount" : 2,
					"maxclass" : "comment",
					"numinlets" : 1,
					"numoutlets" : 0,
					"patching_rect" : [ 309.0, 503.0, 160.0, 39.0 ],
					"presentation" : 1,
					"presentation_linecount" : 2,
					"presentation_rect" : [ 272.5, 299.265591540923594, 160.0, 39.0 ],
					"text" : "• repeat steps 2, 3, and 4\n• (run model)"
				}

			}
, 			{
				"box" : 				{
					"bgcolor" : [ 1.0, 0.788235, 0.470588, 1.0 ],
					"bgoncolor" : [ 0.55, 0.55, 0.55, 1.0 ],
					"fontname" : "Ableton Sans Medium",
					"fontsize" : 9.5,
					"hint" : "",
					"id" : "obj-22",
					"ignoreclick" : 1,
					"legacytextcolor" : 1,
					"maxclass" : "textbutton",
					"numinlets" : 1,
					"numoutlets" : 3,
					"outlettype" : [ "", "", "int" ],
					"parameter_enable" : 0,
					"patching_rect" : [ 280.0, 512.0, 20.0, 20.0 ],
					"presentation" : 1,
					"presentation_rect" : [ 244.0, 308.765591540923594, 20.0, 20.0 ],
					"rounded" : 60.0,
					"text" : "5",
					"textcolor" : [ 0.34902, 0.34902, 0.34902, 1.0 ],
					"textoncolor" : [ 1.0, 1.0, 1.0, 1.0 ],
					"textovercolor" : [ 0.1, 0.1, 0.1, 1.0 ],
					"usebgoncolor" : 1,
					"usetextovercolor" : 1
				}

			}
, 			{
				"box" : 				{
					"bubble" : 1,
					"fontname" : "Ableton Sans Medium",
					"id" : "obj-23",
					"maxclass" : "comment",
					"numinlets" : 1,
					"numoutlets" : 0,
					"patching_rect" : [ 309.0, 478.0, 108.0, 25.0 ],
					"presentation" : 1,
					"presentation_rect" : [ 272.5, 273.265591540923594, 108.0, 25.0 ],
					"text" : "record example"
				}

			}
, 			{
				"box" : 				{
					"bgcolor" : [ 1.0, 0.788235, 0.470588, 1.0 ],
					"bgoncolor" : [ 0.55, 0.55, 0.55, 1.0 ],
					"fontname" : "Ableton Sans Medium",
					"fontsize" : 9.5,
					"hint" : "",
					"id" : "obj-24",
					"ignoreclick" : 1,
					"legacytextcolor" : 1,
					"maxclass" : "textbutton",
					"numinlets" : 1,
					"numoutlets" : 3,
					"outlettype" : [ "", "", "int" ],
					"parameter_enable" : 0,
					"patching_rect" : [ 280.0, 480.0, 20.0, 20.0 ],
					"presentation" : 1,
					"presentation_rect" : [ 244.0, 275.765591540923594, 20.0, 20.0 ],
					"rounded" : 60.0,
					"text" : "4",
					"textcolor" : [ 0.34902, 0.34902, 0.34902, 1.0 ],
					"textoncolor" : [ 1.0, 1.0, 1.0, 1.0 ],
					"textovercolor" : [ 0.1, 0.1, 0.1, 1.0 ],
					"usebgoncolor" : 1,
					"usetextovercolor" : 1
				}

			}
, 			{
				"box" : 				{
					"bubble" : 1,
					"fontname" : "Ableton Sans Medium",
					"id" : "obj-25",
					"maxclass" : "comment",
					"numinlets" : 1,
					"numoutlets" : 0,
					"patching_rect" : [ 528.5, 154.065131435185037, 117.0, 25.0 ],
					"presentation" : 1,
					"presentation_rect" : [ 272.5, 490.058360211476952, 117.0, 25.0 ],
					"text" : "set target output"
				}

			}
, 			{
				"box" : 				{
					"bgcolor" : [ 1.0, 0.788235, 0.470588, 1.0 ],
					"bgoncolor" : [ 0.55, 0.55, 0.55, 1.0 ],
					"fontname" : "Ableton Sans Medium",
					"fontsize" : 10.0,
					"hint" : "",
					"id" : "obj-26",
					"ignoreclick" : 1,
					"legacytextcolor" : 1,
					"maxclass" : "textbutton",
					"numinlets" : 1,
					"numoutlets" : 3,
					"outlettype" : [ "", "", "int" ],
					"parameter_enable" : 0,
					"patching_rect" : [ 500.0, 156.565131435185037, 20.0, 20.0 ],
					"presentation" : 1,
					"presentation_rect" : [ 244.0, 492.558360211476952, 20.0, 20.0 ],
					"rounded" : 60.0,
					"text" : "2",
					"textcolor" : [ 0.34902, 0.34902, 0.34902, 1.0 ],
					"textoncolor" : [ 1.0, 1.0, 1.0, 1.0 ],
					"textovercolor" : [ 0.1, 0.1, 0.1, 1.0 ],
					"usebgoncolor" : 1,
					"usetextovercolor" : 1
				}

			}
, 			{
				"box" : 				{
					"bubble" : 1,
					"fontname" : "Ableton Sans Medium",
					"id" : "obj-27",
					"maxclass" : "comment",
					"numinlets" : 1,
					"numoutlets" : 0,
					"patching_rect" : [ 308.0, 385.532565717592433, 73.0, 25.0 ],
					"presentation" : 1,
					"presentation_rect" : [ 272.5, 133.486411435185119, 73.0, 25.0 ],
					"text" : "set input"
				}

			}
, 			{
				"box" : 				{
					"bgcolor" : [ 1.0, 0.788235, 0.470588, 1.0 ],
					"bgoncolor" : [ 0.55, 0.55, 0.55, 1.0 ],
					"fontname" : "Ableton Sans Medium",
					"fontsize" : 9.5,
					"hint" : "",
					"id" : "obj-30",
					"ignoreclick" : 1,
					"legacytextcolor" : 1,
					"maxclass" : "textbutton",
					"numinlets" : 1,
					"numoutlets" : 3,
					"outlettype" : [ "", "", "int" ],
					"parameter_enable" : 0,
					"patching_rect" : [ 280.0, 388.03256571759249, 20.0, 20.0 ],
					"presentation" : 1,
					"presentation_rect" : [ 244.0, 135.986411435185062, 20.0, 20.0 ],
					"rounded" : 60.0,
					"text" : "3",
					"textcolor" : [ 0.34902, 0.34902, 0.34902, 1.0 ],
					"textoncolor" : [ 1.0, 1.0, 1.0, 1.0 ],
					"textovercolor" : [ 0.1, 0.1, 0.1, 1.0 ],
					"usebgoncolor" : 1,
					"usetextovercolor" : 1
				}

			}
, 			{
				"box" : 				{
					"args" : [ 4 ],
					"bgmode" : 0,
					"border" : 1,
					"clickthrough" : 0,
					"enablehscroll" : 0,
					"enablevscroll" : 0,
					"id" : "obj-31",
					"lockeddragscroll" : 0,
					"lockedsize" : 0,
					"maxclass" : "bpatcher",
					"name" : "mo.tabs.maxpat",
					"numinlets" : 2,
					"numoutlets" : 2,
					"offset" : [ 0.0, 0.0 ],
					"outlettype" : [ "", "" ],
					"patching_rect" : [ 263.5, 149.0, 214.0, 129.0 ],
					"presentation" : 1,
					"presentation_rect" : [ 20.0, 427.0, 214.0, 129.0 ],
					"varname" : "mo.sliders",
					"viewvisibility" : 1
				}

			}
, 			{
				"box" : 				{
					"bgmode" : 0,
					"border" : 1,
					"clickthrough" : 0,
					"enablehscroll" : 0,
					"enablevscroll" : 0,
					"id" : "obj-16",
					"lockeddragscroll" : 0,
					"lockedsize" : 0,
					"maxclass" : "bpatcher",
					"name" : "mo.xypad.maxpat",
					"numinlets" : 2,
					"numoutlets" : 1,
					"offset" : [ 0.0, 0.0 ],
					"outlettype" : [ "" ],
					"patching_rect" : [ 20.0, 20.0, 214.0, 214.0 ],
					"presentation" : 1,
					"presentation_rect" : [ 20.0, 20.0, 214.0, 214.0 ],
					"varname" : "mo.xypad",
					"viewvisibility" : 1
				}

			}
, 			{
				"box" : 				{
					"bubble" : 1,
					"fontname" : "Ableton Sans Medium",
					"id" : "obj-9",
					"maxclass" : "comment",
					"numinlets" : 1,
					"numoutlets" : 0,
					"patching_rect" : [ 754.57013450935483, 451.065131435185094, 77.0, 25.0 ],
					"presentation" : 1,
					"presentation_rect" : [ 356.5, 420.0, 74.0, 25.0 ],
					"text" : "start dsp"
				}

			}
, 			{
				"box" : 				{
					"bgcolor" : [ 1.0, 0.788235, 0.470588, 1.0 ],
					"bgoncolor" : [ 0.55, 0.55, 0.55, 1.0 ],
					"fontname" : "Ableton Sans Medium",
					"fontsize" : 10.0,
					"hint" : "",
					"id" : "obj-11",
					"ignoreclick" : 1,
					"legacytextcolor" : 1,
					"maxclass" : "textbutton",
					"numinlets" : 1,
					"numoutlets" : 3,
					"outlettype" : [ "", "", "int" ],
					"parameter_enable" : 0,
					"patching_rect" : [ 727.07013450935483, 453.565131435185094, 20.0, 20.0 ],
					"presentation" : 1,
					"presentation_rect" : [ 331.375, 422.5, 20.0, 20.0 ],
					"rounded" : 60.0,
					"text" : "1",
					"textcolor" : [ 0.34902, 0.34902, 0.34902, 1.0 ],
					"textoncolor" : [ 1.0, 1.0, 1.0, 1.0 ],
					"textovercolor" : [ 0.1, 0.1, 0.1, 1.0 ],
					"usebgoncolor" : 1,
					"usetextovercolor" : 1
				}

			}
, 			{
				"box" : 				{
					"id" : "obj-8",
					"local" : 1,
					"maxclass" : "mc.ezdac~",
					"numinlets" : 1,
					"numoutlets" : 0,
					"patching_rect" : [ 673.19513450935483, 441.065131435185094, 45.0, 45.0 ],
					"presentation" : 1,
					"presentation_rect" : [ 272.5, 410.0, 45.0, 45.0 ]
				}

			}
, 			{
				"box" : 				{
					"fontface" : 1,
					"fontname" : "Ableton Sans Medium",
					"id" : "obj-2",
					"linecount" : 5,
					"maxclass" : "comment",
					"numinlets" : 1,
					"numoutlets" : 0,
					"patching_rect" : [ 673.19513450935483, 310.0, 238.0, 79.0 ],
					"presentation" : 1,
					"presentation_linecount" : 5,
					"presentation_rect" : [ 254.0, 21.5, 238.0, 79.0 ],
					"text" : "INSTRUCTIONS:\n\n1. Start dsp.\n2. Record input and target output pairs.\n3. Use xypad to start/stop different tracks."
				}

			}
 ],
		"lines" : [ 			{
				"patchline" : 				{
					"destination" : [ "obj-56", 0 ],
					"midpoints" : [ 29.5, 573.0, 29.5, 573.0 ],
					"source" : [ "obj-1", 0 ]
				}

			}
, 			{
				"patchline" : 				{
					"destination" : [ "obj-36", 0 ],
					"midpoints" : [ 29.5, 237.0, 29.5, 237.0 ],
					"source" : [ "obj-16", 0 ]
				}

			}
, 			{
				"patchline" : 				{
					"destination" : [ "obj-36", 1 ],
					"midpoints" : [ 468.0, 297.0, 127.0, 297.0 ],
					"source" : [ "obj-31", 1 ]
				}

			}
, 			{
				"patchline" : 				{
					"destination" : [ "obj-1", 0 ],
					"midpoints" : [ 29.5, 483.0, 29.5, 483.0 ],
					"source" : [ "obj-36", 0 ]
				}

			}
 ],
		"originid" : "pat-4",
		"parameters" : 		{
			"obj-16::obj-10" : [ "live.text[183]", "live.text", 0 ],
			"obj-16::obj-18" : [ "live.text[260]", "live.text", 0 ],
			"obj-16::obj-20" : [ "live.text[259]", "live.text", 0 ],
			"obj-16::obj-31" : [ "live.text[34]", "live.text", 0 ],
			"obj-16::obj-56" : [ "live.numbox[1]", "live.numbox", 0 ],
			"obj-1::obj-3" : [ "live.text[605]", "live.text", 0 ],
			"obj-1::obj-33" : [ "live.text[604]", "live.text", 0 ],
			"obj-1::obj-42" : [ "live.text[782]", "live.text", 0 ],
			"obj-31::obj-38" : [ "live.text[20]", "live.text", 0 ],
			"obj-31::obj-4" : [ "live.text[56]", "live.text", 0 ],
			"obj-31::obj-56" : [ "live.numbox[6]", "live.numbox", 0 ],
			"obj-31::obj-59" : [ "live.text[21]", "live.text", 0 ],
			"obj-36::obj-113" : [ "live.text[651]", "live.text", 0 ],
			"obj-36::obj-147" : [ "live.text[971]", "live.text", 0 ],
			"obj-36::obj-21" : [ "live.text[969]", "number", 0 ],
			"obj-36::obj-26" : [ "number[30]", "number", 0 ],
			"obj-36::obj-37" : [ "live.text[648]", "number", 0 ],
			"obj-36::obj-40" : [ "number[28]", "number[1]", 0 ],
			"obj-36::obj-41" : [ "live.text[970]", "live.text", 0 ],
			"obj-36::obj-45" : [ "live.text[652]", "live.text", 0 ],
			"obj-36::obj-46" : [ "live.text[967]", "live.text", 0 ],
			"obj-36::obj-54" : [ "live.text[646]", "live.text", 0 ],
			"obj-36::obj-55" : [ "live.text[650]", "live.text", 0 ],
			"obj-36::obj-66" : [ "number[29]", "number", 0 ],
			"obj-36::obj-67" : [ "live.text[649]", "live.text", 0 ],
			"obj-36::obj-70" : [ "live.numbox[625]", "live.numbox", 0 ],
			"obj-36::obj-84" : [ "live.numbox[624]", "live.numbox", 0 ],
			"obj-36::obj-9" : [ "live.numbox[623]", "live.text", 0 ],
			"obj-36::obj-92" : [ "live.text[968]", "live.text", 0 ],
			"obj-36::obj-93" : [ "live.text[647]", "live.text", 0 ],
			"obj-36::obj-99" : [ "live.numbox[622]", "live.numbox", 0 ],
			"obj-56::obj-45" : [ "live.gain~[1]", "volume", 0 ],
			"obj-56::obj-56" : [ "live.numbox[348]", "live.numbox", 0 ],
			"obj-56::obj-7" : [ "live.text", "live.text", 0 ],
			"obj-56::obj-8" : [ "live.text[684]", "live.text", 0 ],
			"parameterbanks" : 			{
				"0" : 				{
					"index" : 0,
					"name" : "",
					"parameters" : [ "-", "-", "-", "-", "-", "-", "-", "-" ]
				}

			}
,
			"parameter_overrides" : 			{
				"obj-16::obj-10" : 				{
					"parameter_longname" : "live.text[183]"
				}
,
				"obj-16::obj-18" : 				{
					"parameter_longname" : "live.text[260]"
				}
,
				"obj-16::obj-20" : 				{
					"parameter_longname" : "live.text[259]"
				}
,
				"obj-16::obj-31" : 				{
					"parameter_longname" : "live.text[34]"
				}
,
				"obj-16::obj-56" : 				{
					"parameter_longname" : "live.numbox[1]"
				}
,
				"obj-1::obj-3" : 				{
					"parameter_longname" : "live.text[605]"
				}
,
				"obj-1::obj-33" : 				{
					"parameter_longname" : "live.text[604]"
				}
,
				"obj-1::obj-42" : 				{
					"parameter_longname" : "live.text[782]"
				}
,
				"obj-31::obj-38" : 				{
					"parameter_longname" : "live.text[20]"
				}
,
				"obj-31::obj-4" : 				{
					"parameter_longname" : "live.text[56]"
				}
,
				"obj-31::obj-56" : 				{
					"parameter_longname" : "live.numbox[6]"
				}
,
				"obj-31::obj-59" : 				{
					"parameter_longname" : "live.text[21]"
				}
,
				"obj-56::obj-45" : 				{
					"parameter_longname" : "live.gain~[1]"
				}
,
				"obj-56::obj-56" : 				{
					"parameter_longname" : "live.numbox[348]"
				}
,
				"obj-56::obj-7" : 				{
					"parameter_longname" : "live.text"
				}
,
				"obj-56::obj-8" : 				{
					"parameter_longname" : "live.text[684]"
				}

			}
,
			"inherited_shortname" : 1
		}
,
		"dependency_cache" : [ 			{
				"name" : "a-mo.settings.maxpat",
				"bootpath" : "~/Documents/Max 9/Packages/modulo/misc/abstractions",
				"patcherrelativepath" : "../../../modulo/misc/abstractions",
				"type" : "JSON",
				"implicit" : 1
			}
, 			{
				"name" : "brushes.aif",
				"bootpath" : "C74:/media/msp",
				"type" : "AIFF",
				"implicit" : 1
			}
, 			{
				"name" : "drumLoop.aif",
				"bootpath" : "C74:/media/msp",
				"type" : "AIFF",
				"implicit" : 1
			}
, 			{
				"name" : "duduk.aif",
				"bootpath" : "C74:/media/msp",
				"type" : "AIFF",
				"implicit" : 1
			}
, 			{
				"name" : "fluid.dataset~.mxo",
				"type" : "iLaX"
			}
, 			{
				"name" : "fluid.labelset~.mxo",
				"type" : "iLaX"
			}
, 			{
				"name" : "fluid.list2buf.mxo",
				"type" : "iLaX"
			}
, 			{
				"name" : "fluid.mlpclassifier~.mxo",
				"type" : "iLaX"
			}
, 			{
				"name" : "fwdarrow.svg",
				"bootpath" : "C74:/interfaces",
				"type" : "svg",
				"implicit" : 1
			}
, 			{
				"name" : "mo.classify.maxpat",
				"bootpath" : "~/Documents/Max 9/Packages/modulo-plus/patchers/transform",
				"patcherrelativepath" : "../../patchers/transform",
				"type" : "JSON",
				"implicit" : 1
			}
, 			{
				"name" : "mo.color.txt",
				"bootpath" : "~/Documents/Max 9/Packages/modulo/misc/colls",
				"patcherrelativepath" : "../../../modulo/misc/colls",
				"type" : "TEXT",
				"implicit" : 1
			}
, 			{
				"name" : "mo.colors.txt",
				"bootpath" : "~/Documents/Max 9/Packages/modulo/misc/colls",
				"patcherrelativepath" : "../../../modulo/misc/colls",
				"type" : "TEXT",
				"implicit" : 1
			}
, 			{
				"name" : "mo.dac~.maxpat",
				"bootpath" : "~/Documents/Max 9/Packages/modulo/patchers/route",
				"patcherrelativepath" : "../../../modulo/patchers/route",
				"type" : "JSON",
				"implicit" : 1
			}
, 			{
				"name" : "mo.resize.js",
				"bootpath" : "~/Documents/Max 9/Packages/modulo/misc/js",
				"patcherrelativepath" : "../../../modulo/misc/js",
				"type" : "TEXT",
				"implicit" : 1
			}
, 			{
				"name" : "mo.tabs.maxpat",
				"bootpath" : "~/Documents/Max 9/Packages/modulo/patchers/input",
				"patcherrelativepath" : "../../../modulo/patchers/input",
				"type" : "JSON",
				"implicit" : 1
			}
, 			{
				"name" : "mo.xypad.maxpat",
				"bootpath" : "~/Documents/Max 9/Packages/modulo/patchers/input",
				"patcherrelativepath" : "../../../modulo/patchers/input",
				"type" : "JSON",
				"implicit" : 1
			}
, 			{
				"name" : "pause.svg",
				"bootpath" : "C74:/interfaces",
				"type" : "svg",
				"implicit" : 1
			}
, 			{
				"name" : "rainstick.aif",
				"bootpath" : "C74:/media/msp",
				"type" : "AIFF",
				"implicit" : 1
			}
 ],
		"autosave" : 0
	}

}
