{
	"patcher" : 	{
		"fileversion" : 1,
		"appversion" : 		{
			"major" : 9,
			"minor" : 0,
			"revision" : 3,
			"architecture" : "x64",
			"modernui" : 1
		}
,
		"classnamespace" : "box",
		"rect" : [ 34.0, 96.0, 744.0, 654.0 ],
		"default_fontname" : "Ableton Sans Medium",
		"gridonopen" : 2,
		"gridsize" : [ 10.0, 10.0 ],
		"subpatcher_template" : " ",
		"helpsidebarclosed" : 1,
		"boxes" : [ 			{
				"box" : 				{
					"id" : "obj-68",
					"maxclass" : "textbutton",
					"mode" : 1,
					"numinlets" : 1,
					"numoutlets" : 3,
					"outlettype" : [ "", "", "int" ],
					"parameter_enable" : 0,
					"patching_rect" : [ 671.0, 601.0, 24.0, 24.0 ],
					"text" : "22",
					"textcolor" : [ 1.0, 1.0, 1.0, 1.0 ],
					"texton" : "22"
				}

			}
, 			{
				"box" : 				{
					"id" : "obj-69",
					"maxclass" : "textbutton",
					"mode" : 1,
					"numinlets" : 1,
					"numoutlets" : 3,
					"outlettype" : [ "", "", "int" ],
					"parameter_enable" : 0,
					"patching_rect" : [ 641.0, 601.0, 24.0, 24.0 ],
					"text" : "21",
					"textcolor" : [ 1.0, 1.0, 1.0, 1.0 ],
					"texton" : "21"
				}

			}
, 			{
				"box" : 				{
					"id" : "obj-70",
					"maxclass" : "textbutton",
					"mode" : 1,
					"numinlets" : 1,
					"numoutlets" : 3,
					"outlettype" : [ "", "", "int" ],
					"parameter_enable" : 0,
					"patching_rect" : [ 611.0, 601.0, 24.0, 24.0 ],
					"text" : "20",
					"textcolor" : [ 1.0, 1.0, 1.0, 1.0 ],
					"texton" : "20"
				}

			}
, 			{
				"box" : 				{
					"id" : "obj-71",
					"maxclass" : "textbutton",
					"mode" : 1,
					"numinlets" : 1,
					"numoutlets" : 3,
					"outlettype" : [ "", "", "int" ],
					"parameter_enable" : 0,
					"patching_rect" : [ 581.0, 601.0, 24.0, 24.0 ],
					"text" : "19",
					"textcolor" : [ 1.0, 1.0, 1.0, 1.0 ],
					"texton" : "19"
				}

			}
, 			{
				"box" : 				{
					"id" : "obj-14",
					"maxclass" : "textbutton",
					"mode" : 1,
					"numinlets" : 1,
					"numoutlets" : 3,
					"outlettype" : [ "", "", "int" ],
					"parameter_enable" : 0,
					"patching_rect" : [ 551.0, 601.0, 24.0, 24.0 ],
					"text" : "18",
					"textcolor" : [ 1.0, 1.0, 1.0, 1.0 ],
					"texton" : "18"
				}

			}
, 			{
				"box" : 				{
					"id" : "obj-20",
					"maxclass" : "textbutton",
					"mode" : 1,
					"numinlets" : 1,
					"numoutlets" : 3,
					"outlettype" : [ "", "", "int" ],
					"parameter_enable" : 0,
					"patching_rect" : [ 521.0, 601.0, 24.0, 24.0 ],
					"text" : "17",
					"textcolor" : [ 1.0, 1.0, 1.0, 1.0 ],
					"texton" : "17"
				}

			}
, 			{
				"box" : 				{
					"id" : "obj-35",
					"maxclass" : "textbutton",
					"mode" : 1,
					"numinlets" : 1,
					"numoutlets" : 3,
					"outlettype" : [ "", "", "int" ],
					"parameter_enable" : 0,
					"patching_rect" : [ 491.0, 601.0, 24.0, 24.0 ],
					"text" : "16",
					"textcolor" : [ 1.0, 1.0, 1.0, 1.0 ],
					"texton" : "16"
				}

			}
, 			{
				"box" : 				{
					"id" : "obj-36",
					"maxclass" : "textbutton",
					"mode" : 1,
					"numinlets" : 1,
					"numoutlets" : 3,
					"outlettype" : [ "", "", "int" ],
					"parameter_enable" : 0,
					"patching_rect" : [ 461.0, 601.0, 24.0, 24.0 ],
					"text" : "15",
					"textcolor" : [ 1.0, 1.0, 1.0, 1.0 ],
					"texton" : "15"
				}

			}
, 			{
				"box" : 				{
					"id" : "obj-37",
					"maxclass" : "textbutton",
					"mode" : 1,
					"numinlets" : 1,
					"numoutlets" : 3,
					"outlettype" : [ "", "", "int" ],
					"parameter_enable" : 0,
					"patching_rect" : [ 431.0, 601.0, 24.0, 24.0 ],
					"text" : "14",
					"textcolor" : [ 1.0, 1.0, 1.0, 1.0 ],
					"texton" : "14"
				}

			}
, 			{
				"box" : 				{
					"id" : "obj-38",
					"maxclass" : "textbutton",
					"mode" : 1,
					"numinlets" : 1,
					"numoutlets" : 3,
					"outlettype" : [ "", "", "int" ],
					"parameter_enable" : 0,
					"patching_rect" : [ 401.0, 601.0, 24.0, 24.0 ],
					"text" : "13",
					"textcolor" : [ 1.0, 1.0, 1.0, 1.0 ],
					"texton" : "13"
				}

			}
, 			{
				"box" : 				{
					"id" : "obj-39",
					"maxclass" : "textbutton",
					"mode" : 1,
					"numinlets" : 1,
					"numoutlets" : 3,
					"outlettype" : [ "", "", "int" ],
					"parameter_enable" : 0,
					"patching_rect" : [ 371.0, 601.0, 24.0, 24.0 ],
					"text" : "12",
					"textcolor" : [ 1.0, 1.0, 1.0, 1.0 ],
					"texton" : "12"
				}

			}
, 			{
				"box" : 				{
					"id" : "obj-32",
					"maxclass" : "textbutton",
					"mode" : 1,
					"numinlets" : 1,
					"numoutlets" : 3,
					"outlettype" : [ "", "", "int" ],
					"parameter_enable" : 0,
					"patching_rect" : [ 341.0, 601.0, 24.0, 24.0 ],
					"text" : "11",
					"textcolor" : [ 1.0, 1.0, 1.0, 1.0 ],
					"texton" : "11"
				}

			}
, 			{
				"box" : 				{
					"id" : "obj-33",
					"maxclass" : "textbutton",
					"mode" : 1,
					"numinlets" : 1,
					"numoutlets" : 3,
					"outlettype" : [ "", "", "int" ],
					"parameter_enable" : 0,
					"patching_rect" : [ 311.0, 601.0, 24.0, 24.0 ],
					"text" : "10",
					"textcolor" : [ 1.0, 1.0, 1.0, 1.0 ],
					"texton" : "10"
				}

			}
, 			{
				"box" : 				{
					"id" : "obj-34",
					"maxclass" : "textbutton",
					"mode" : 1,
					"numinlets" : 1,
					"numoutlets" : 3,
					"outlettype" : [ "", "", "int" ],
					"parameter_enable" : 0,
					"patching_rect" : [ 281.0, 601.0, 24.0, 24.0 ],
					"text" : "9",
					"textcolor" : [ 1.0, 1.0, 1.0, 1.0 ],
					"texton" : "9"
				}

			}
, 			{
				"box" : 				{
					"id" : "obj-26",
					"maxclass" : "textbutton",
					"mode" : 1,
					"numinlets" : 1,
					"numoutlets" : 3,
					"outlettype" : [ "", "", "int" ],
					"parameter_enable" : 0,
					"patching_rect" : [ 251.0, 601.0, 24.0, 24.0 ],
					"text" : "8",
					"textcolor" : [ 1.0, 1.0, 1.0, 1.0 ],
					"texton" : "8"
				}

			}
, 			{
				"box" : 				{
					"id" : "obj-27",
					"maxclass" : "textbutton",
					"mode" : 1,
					"numinlets" : 1,
					"numoutlets" : 3,
					"outlettype" : [ "", "", "int" ],
					"parameter_enable" : 0,
					"patching_rect" : [ 221.0, 601.0, 24.0, 24.0 ],
					"text" : "7",
					"textcolor" : [ 1.0, 1.0, 1.0, 1.0 ],
					"texton" : "7"
				}

			}
, 			{
				"box" : 				{
					"id" : "obj-29",
					"maxclass" : "textbutton",
					"mode" : 1,
					"numinlets" : 1,
					"numoutlets" : 3,
					"outlettype" : [ "", "", "int" ],
					"parameter_enable" : 0,
					"patching_rect" : [ 191.0, 601.0, 24.0, 24.0 ],
					"text" : "6",
					"textcolor" : [ 1.0, 1.0, 1.0, 1.0 ],
					"texton" : "6"
				}

			}
, 			{
				"box" : 				{
					"id" : "obj-31",
					"maxclass" : "textbutton",
					"mode" : 1,
					"numinlets" : 1,
					"numoutlets" : 3,
					"outlettype" : [ "", "", "int" ],
					"parameter_enable" : 0,
					"patching_rect" : [ 161.0, 601.0, 24.0, 24.0 ],
					"text" : "5",
					"textcolor" : [ 1.0, 1.0, 1.0, 1.0 ],
					"texton" : "5"
				}

			}
, 			{
				"box" : 				{
					"id" : "obj-23",
					"maxclass" : "textbutton",
					"mode" : 1,
					"numinlets" : 1,
					"numoutlets" : 3,
					"outlettype" : [ "", "", "int" ],
					"parameter_enable" : 0,
					"patching_rect" : [ 131.0, 601.0, 24.0, 24.0 ],
					"text" : "4",
					"textcolor" : [ 1.0, 1.0, 1.0, 1.0 ],
					"texton" : "4"
				}

			}
, 			{
				"box" : 				{
					"id" : "obj-25",
					"maxclass" : "textbutton",
					"mode" : 1,
					"numinlets" : 1,
					"numoutlets" : 3,
					"outlettype" : [ "", "", "int" ],
					"parameter_enable" : 0,
					"patching_rect" : [ 101.0, 601.0, 24.0, 24.0 ],
					"text" : "3",
					"textcolor" : [ 1.0, 1.0, 1.0, 1.0 ],
					"texton" : "3"
				}

			}
, 			{
				"box" : 				{
					"id" : "obj-22",
					"maxclass" : "textbutton",
					"mode" : 1,
					"numinlets" : 1,
					"numoutlets" : 3,
					"outlettype" : [ "", "", "int" ],
					"parameter_enable" : 0,
					"patching_rect" : [ 71.0, 601.0, 24.0, 24.0 ],
					"text" : "2",
					"textcolor" : [ 1.0, 1.0, 1.0, 1.0 ],
					"texton" : "2"
				}

			}
, 			{
				"box" : 				{
					"id" : "obj-21",
					"maxclass" : "textbutton",
					"mode" : 1,
					"numinlets" : 1,
					"numoutlets" : 3,
					"outlettype" : [ "", "", "int" ],
					"parameter_enable" : 0,
					"patching_rect" : [ 41.0, 601.0, 24.0, 24.0 ],
					"text" : "1",
					"textcolor" : [ 1.0, 1.0, 1.0, 1.0 ],
					"texton" : "1"
				}

			}
, 			{
				"box" : 				{
					"fontname" : "Ableton Sans Medium",
					"id" : "obj-7",
					"linecount" : 2,
					"maxclass" : "comment",
					"numinlets" : 1,
					"numoutlets" : 0,
					"patching_rect" : [ 378.0, 517.0, 49.0, 35.0 ],
					"text" : "joystick\nR",
					"textjustification" : 1
				}

			}
, 			{
				"box" : 				{
					"id" : "obj-8",
					"maxclass" : "pictslider",
					"numinlets" : 2,
					"numoutlets" : 2,
					"outlettype" : [ "int", "int" ],
					"parameter_enable" : 0,
					"patching_rect" : [ 352.0, 411.0, 100.0, 100.0 ]
				}

			}
, 			{
				"box" : 				{
					"id" : "obj-2",
					"maxclass" : "newobj",
					"numinlets" : 2,
					"numoutlets" : 2,
					"outlettype" : [ "", "" ],
					"patching_rect" : [ 236.0, 371.0, 135.0, 23.0 ],
					"text" : "zl.slice 2"
				}

			}
, 			{
				"box" : 				{
					"id" : "obj-18",
					"maxclass" : "newobj",
					"numinlets" : 5,
					"numoutlets" : 1,
					"outlettype" : [ "" ],
					"patching_rect" : [ 236.0, 331.0, 91.0, 23.0 ],
					"text" : "zmap 0 1 0 127"
				}

			}
, 			{
				"box" : 				{
					"fontname" : "Ableton Sans Medium",
					"id" : "obj-16",
					"linecount" : 2,
					"maxclass" : "comment",
					"numinlets" : 1,
					"numoutlets" : 0,
					"patching_rect" : [ 262.0, 517.0, 49.0, 35.0 ],
					"text" : "joystick\nL",
					"textjustification" : 1
				}

			}
, 			{
				"box" : 				{
					"id" : "obj-15",
					"maxclass" : "pictslider",
					"numinlets" : 2,
					"numoutlets" : 2,
					"outlettype" : [ "int", "int" ],
					"parameter_enable" : 0,
					"patching_rect" : [ 236.0, 411.0, 100.0, 100.0 ]
				}

			}
, 			{
				"box" : 				{
					"id" : "obj-9",
					"maxclass" : "newobj",
					"numinlets" : 1,
					"numoutlets" : 23,
					"outlettype" : [ "", "", "", "", "", "", "", "", "", "", "", "", "", "", "", "", "", "", "", "", "", "", "" ],
					"patching_rect" : [ 41.0, 556.0, 679.0, 23.0 ],
					"text" : "unjoin 22"
				}

			}
, 			{
				"box" : 				{
					"id" : "obj-13",
					"maxclass" : "message",
					"numinlets" : 2,
					"numoutlets" : 1,
					"outlettype" : [ "" ],
					"patching_rect" : [ 262.0, 216.0, 56.0, 23.0 ],
					"text" : "vibrate 3"
				}

			}
, 			{
				"box" : 				{
					"id" : "obj-11",
					"maxclass" : "message",
					"numinlets" : 2,
					"numoutlets" : 1,
					"outlettype" : [ "" ],
					"patching_rect" : [ 199.0, 216.0, 56.0, 23.0 ],
					"text" : "vibrate 2"
				}

			}
, 			{
				"box" : 				{
					"id" : "obj-28",
					"maxclass" : "message",
					"numinlets" : 2,
					"numoutlets" : 1,
					"outlettype" : [ "" ],
					"patching_rect" : [ 135.0, 216.0, 56.0, 23.0 ],
					"text" : "vibrate 1"
				}

			}
, 			{
				"box" : 				{
					"fontname" : "Ableton Sans Medium",
					"id" : "obj-67",
					"maxclass" : "comment",
					"numinlets" : 1,
					"numoutlets" : 0,
					"patching_rect" : [ 180.0, 516.0, 32.0, 21.0 ],
					"text" : "gyro",
					"textjustification" : 1
				}

			}
, 			{
				"box" : 				{
					"fontname" : "Ableton Sans Medium",
					"id" : "obj-66",
					"maxclass" : "comment",
					"numinlets" : 1,
					"numoutlets" : 0,
					"patching_rect" : [ 112.0, 516.0, 37.0, 21.0 ],
					"text" : "accel",
					"textjustification" : 1
				}

			}
, 			{
				"box" : 				{
					"candycane" : 3,
					"id" : "obj-43",
					"maxclass" : "multislider",
					"numinlets" : 1,
					"numoutlets" : 2,
					"outlettype" : [ "", "" ],
					"parameter_enable" : 0,
					"patching_rect" : [ 171.0, 371.0, 49.0, 140.0 ],
					"setstyle" : 1,
					"signed" : 1,
					"size" : 3
				}

			}
, 			{
				"box" : 				{
					"candycane" : 3,
					"id" : "obj-44",
					"maxclass" : "multislider",
					"numinlets" : 1,
					"numoutlets" : 2,
					"outlettype" : [ "", "" ],
					"parameter_enable" : 0,
					"patching_rect" : [ 106.0, 371.0, 49.0, 140.0 ],
					"setstyle" : 3,
					"size" : 3
				}

			}
, 			{
				"box" : 				{
					"bgcolor" : [ 1.0, 0.788235, 0.470588, 1.0 ],
					"fontname" : "Ableton Sans Medium",
					"fontsize" : 10.0,
					"hint" : "",
					"id" : "obj-3",
					"ignoreclick" : 1,
					"legacytextcolor" : 1,
					"maxclass" : "textbutton",
					"numinlets" : 1,
					"numoutlets" : 3,
					"outlettype" : [ "", "", "int" ],
					"parameter_enable" : 0,
					"patching_rect" : [ 330.0, 217.0, 20.0, 20.0 ],
					"rounded" : 60.0,
					"text" : "1",
					"textcolor" : [ 0.34902, 0.34902, 0.34902, 1.0 ]
				}

			}
, 			{
				"box" : 				{
					"bubble" : 1,
					"fontname" : "Ableton Sans Medium",
					"fontsize" : 12.0,
					"id" : "obj-4",
					"maxclass" : "comment",
					"numinlets" : 1,
					"numoutlets" : 0,
					"patching_rect" : [ 356.0, 214.0, 182.0, 25.0 ],
					"text" : "vibrate (short, medium, long)"
				}

			}
, 			{
				"box" : 				{
					"bgmode" : 0,
					"border" : 1,
					"clickthrough" : 0,
					"enablehscroll" : 0,
					"enablevscroll" : 0,
					"id" : "obj-1",
					"lockeddragscroll" : 0,
					"lockedsize" : 0,
					"maxclass" : "bpatcher",
					"name" : "mo.joycon.maxpat",
					"numinlets" : 1,
					"numoutlets" : 4,
					"offset" : [ 0.0, 0.0 ],
					"outlettype" : [ "", "", "", "" ],
					"patching_rect" : [ 41.0, 268.0, 214.0, 45.0 ],
					"varname" : "mo.joycon",
					"viewvisibility" : 1
				}

			}
, 			{
				"box" : 				{
					"bubble" : 1,
					"fontname" : "Ableton Sans Medium",
					"fontsize" : 12.0,
					"id" : "obj-5",
					"maxclass" : "comment",
					"numinlets" : 1,
					"numoutlets" : 0,
					"patching_rect" : [ 70.0, 167.0, 92.0, 25.0 ],
					"text" : "mute output"
				}

			}
, 			{
				"box" : 				{
					"fontname" : "Ableton Sans Medium",
					"fontsize" : 13.0,
					"id" : "obj-30",
					"maxclass" : "comment",
					"numinlets" : 1,
					"numoutlets" : 0,
					"patching_rect" : [ 9.0, 102.0, 198.0, 22.0 ],
					"text" : "Based on the <gamepad> object.",
					"textcolor" : [ 0.274509803921569, 0.274509803921569, 0.274509803921569, 1.0 ]
				}

			}
, 			{
				"box" : 				{
					"fontname" : "Ableton Sans Medium",
					"fontsize" : 14.0,
					"id" : "obj-19",
					"maxclass" : "comment",
					"numinlets" : 1,
					"numoutlets" : 0,
					"patching_rect" : [ 9.0, 83.0, 397.0, 23.0 ],
					"text" : "Stream data from a single/pair of Nintendo Switch Joy-Con(s)."
				}

			}
, 			{
				"box" : 				{
					"fontface" : 0,
					"fontname" : "Ableton Sans Medium",
					"fontsize" : 54.0,
					"id" : "obj-24",
					"maxclass" : "comment",
					"numinlets" : 1,
					"numoutlets" : 0,
					"patching_rect" : [ 9.0, 9.0, 258.0, 71.0 ],
					"text" : "mo.joycon"
				}

			}
, 			{
				"box" : 				{
					"id" : "obj-12",
					"maxclass" : "toggle",
					"numinlets" : 1,
					"numoutlets" : 1,
					"outlettype" : [ "int" ],
					"parameter_enable" : 0,
					"patching_rect" : [ 41.0, 167.0, 24.0, 24.0 ],
					"svg" : ""
				}

			}
, 			{
				"box" : 				{
					"id" : "obj-10",
					"maxclass" : "message",
					"numinlets" : 2,
					"numoutlets" : 1,
					"outlettype" : [ "" ],
					"patching_rect" : [ 41.0, 216.0, 53.0, 23.0 ],
					"text" : "mute $1"
				}

			}
 ],
		"lines" : [ 			{
				"patchline" : 				{
					"destination" : [ "obj-18", 0 ],
					"midpoints" : [ 245.5, 315.0, 245.5, 315.0 ],
					"source" : [ "obj-1", 3 ]
				}

			}
, 			{
				"patchline" : 				{
					"destination" : [ "obj-43", 0 ],
					"midpoints" : [ 180.5, 315.0, 180.5, 315.0 ],
					"source" : [ "obj-1", 2 ]
				}

			}
, 			{
				"patchline" : 				{
					"destination" : [ "obj-44", 0 ],
					"midpoints" : [ 115.5, 315.0, 115.5, 315.0 ],
					"source" : [ "obj-1", 1 ]
				}

			}
, 			{
				"patchline" : 				{
					"destination" : [ "obj-9", 0 ],
					"midpoints" : [ 50.5, 315.0, 50.5, 315.0 ],
					"source" : [ "obj-1", 0 ]
				}

			}
, 			{
				"patchline" : 				{
					"destination" : [ "obj-1", 0 ],
					"midpoints" : [ 50.5, 240.0, 50.5, 240.0 ],
					"source" : [ "obj-10", 0 ]
				}

			}
, 			{
				"patchline" : 				{
					"destination" : [ "obj-1", 0 ],
					"midpoints" : [ 208.5, 255.0, 50.5, 255.0 ],
					"source" : [ "obj-11", 0 ]
				}

			}
, 			{
				"patchline" : 				{
					"destination" : [ "obj-10", 0 ],
					"midpoints" : [ 50.5, 192.0, 50.5, 192.0 ],
					"source" : [ "obj-12", 0 ]
				}

			}
, 			{
				"patchline" : 				{
					"destination" : [ "obj-1", 0 ],
					"midpoints" : [ 271.5, 255.0, 50.5, 255.0 ],
					"source" : [ "obj-13", 0 ]
				}

			}
, 			{
				"patchline" : 				{
					"destination" : [ "obj-2", 0 ],
					"midpoints" : [ 245.5, 357.0, 245.5, 357.0 ],
					"source" : [ "obj-18", 0 ]
				}

			}
, 			{
				"patchline" : 				{
					"destination" : [ "obj-15", 0 ],
					"midpoints" : [ 245.5, 397.0, 245.5, 397.0 ],
					"source" : [ "obj-2", 0 ]
				}

			}
, 			{
				"patchline" : 				{
					"destination" : [ "obj-8", 0 ],
					"midpoints" : [ 361.5, 397.0, 361.5, 397.0 ],
					"source" : [ "obj-2", 1 ]
				}

			}
, 			{
				"patchline" : 				{
					"destination" : [ "obj-1", 0 ],
					"midpoints" : [ 144.5, 255.0, 50.5, 255.0 ],
					"source" : [ "obj-28", 0 ]
				}

			}
, 			{
				"patchline" : 				{
					"destination" : [ "obj-14", 0 ],
					"midpoints" : [ 560.5, 582.0, 560.5, 582.0 ],
					"source" : [ "obj-9", 17 ]
				}

			}
, 			{
				"patchline" : 				{
					"destination" : [ "obj-20", 0 ],
					"midpoints" : [ 530.5, 582.0, 530.5, 582.0 ],
					"source" : [ "obj-9", 16 ]
				}

			}
, 			{
				"patchline" : 				{
					"destination" : [ "obj-21", 0 ],
					"midpoints" : [ 50.5, 582.0, 50.5, 582.0 ],
					"source" : [ "obj-9", 0 ]
				}

			}
, 			{
				"patchline" : 				{
					"destination" : [ "obj-22", 0 ],
					"midpoints" : [ 80.5, 582.0, 80.5, 582.0 ],
					"source" : [ "obj-9", 1 ]
				}

			}
, 			{
				"patchline" : 				{
					"destination" : [ "obj-23", 0 ],
					"midpoints" : [ 140.5, 582.0, 140.5, 582.0 ],
					"source" : [ "obj-9", 3 ]
				}

			}
, 			{
				"patchline" : 				{
					"destination" : [ "obj-25", 0 ],
					"midpoints" : [ 110.5, 582.0, 110.5, 582.0 ],
					"source" : [ "obj-9", 2 ]
				}

			}
, 			{
				"patchline" : 				{
					"destination" : [ "obj-26", 0 ],
					"midpoints" : [ 260.5, 582.0, 260.5, 582.0 ],
					"source" : [ "obj-9", 7 ]
				}

			}
, 			{
				"patchline" : 				{
					"destination" : [ "obj-27", 0 ],
					"midpoints" : [ 230.5, 582.0, 230.5, 582.0 ],
					"source" : [ "obj-9", 6 ]
				}

			}
, 			{
				"patchline" : 				{
					"destination" : [ "obj-29", 0 ],
					"midpoints" : [ 200.5, 582.0, 200.5, 582.0 ],
					"source" : [ "obj-9", 5 ]
				}

			}
, 			{
				"patchline" : 				{
					"destination" : [ "obj-31", 0 ],
					"midpoints" : [ 170.5, 582.0, 170.5, 582.0 ],
					"source" : [ "obj-9", 4 ]
				}

			}
, 			{
				"patchline" : 				{
					"destination" : [ "obj-32", 0 ],
					"midpoints" : [ 350.5, 582.0, 350.5, 582.0 ],
					"source" : [ "obj-9", 10 ]
				}

			}
, 			{
				"patchline" : 				{
					"destination" : [ "obj-33", 0 ],
					"midpoints" : [ 320.5, 582.0, 320.5, 582.0 ],
					"source" : [ "obj-9", 9 ]
				}

			}
, 			{
				"patchline" : 				{
					"destination" : [ "obj-34", 0 ],
					"midpoints" : [ 290.5, 582.0, 290.5, 582.0 ],
					"source" : [ "obj-9", 8 ]
				}

			}
, 			{
				"patchline" : 				{
					"destination" : [ "obj-35", 0 ],
					"midpoints" : [ 500.5, 582.0, 500.5, 582.0 ],
					"source" : [ "obj-9", 15 ]
				}

			}
, 			{
				"patchline" : 				{
					"destination" : [ "obj-36", 0 ],
					"midpoints" : [ 470.5, 582.0, 470.5, 582.0 ],
					"source" : [ "obj-9", 14 ]
				}

			}
, 			{
				"patchline" : 				{
					"destination" : [ "obj-37", 0 ],
					"midpoints" : [ 440.5, 582.0, 440.5, 582.0 ],
					"source" : [ "obj-9", 13 ]
				}

			}
, 			{
				"patchline" : 				{
					"destination" : [ "obj-38", 0 ],
					"midpoints" : [ 410.5, 582.0, 410.5, 582.0 ],
					"source" : [ "obj-9", 12 ]
				}

			}
, 			{
				"patchline" : 				{
					"destination" : [ "obj-39", 0 ],
					"midpoints" : [ 380.5, 582.0, 380.5, 582.0 ],
					"source" : [ "obj-9", 11 ]
				}

			}
, 			{
				"patchline" : 				{
					"destination" : [ "obj-68", 0 ],
					"midpoints" : [ 680.5, 582.0, 680.5, 582.0 ],
					"source" : [ "obj-9", 21 ]
				}

			}
, 			{
				"patchline" : 				{
					"destination" : [ "obj-69", 0 ],
					"midpoints" : [ 650.5, 582.0, 650.5, 582.0 ],
					"source" : [ "obj-9", 20 ]
				}

			}
, 			{
				"patchline" : 				{
					"destination" : [ "obj-70", 0 ],
					"midpoints" : [ 620.5, 582.0, 620.5, 582.0 ],
					"source" : [ "obj-9", 19 ]
				}

			}
, 			{
				"patchline" : 				{
					"destination" : [ "obj-71", 0 ],
					"midpoints" : [ 590.5, 582.0, 590.5, 582.0 ],
					"source" : [ "obj-9", 18 ]
				}

			}
 ],
		"originid" : "pat-1330",
		"parameters" : 		{
			"obj-1::obj-26" : [ "live.text[16]", "live.text", 0 ],
			"obj-1::obj-28" : [ "live.text[5]", "live.text", 0 ],
			"obj-1::obj-30" : [ "live.text[15]", "live.text", 0 ],
			"obj-1::obj-31" : [ "live.text[17]", "live.text", 0 ],
			"obj-1::obj-36" : [ "live.text[859]", "live.text", 0 ],
			"obj-1::obj-4" : [ "live.text[953]", "live.text", 0 ],
			"obj-1::obj-41" : [ "live.text[858]", "live.text", 0 ],
			"obj-1::obj-45" : [ "live.text[931]", "live.text", 0 ],
			"obj-1::obj-49::obj-5::obj-12::obj-13" : [ "live.numbox[21]", "live.numbox", 0 ],
			"obj-1::obj-49::obj-5::obj-12::obj-15" : [ "live.text[26]", "live.text", 0 ],
			"obj-1::obj-49::obj-5::obj-25::obj-13" : [ "live.numbox[8]", "live.numbox", 0 ],
			"obj-1::obj-49::obj-5::obj-25::obj-15" : [ "live.text[9]", "live.text", 0 ],
			"obj-1::obj-49::obj-5::obj-4::obj-12" : [ "live.text[18]", "live.text", 0 ],
			"obj-1::obj-49::obj-5::obj-4::obj-13" : [ "live.numbox[9]", "live.numbox", 0 ],
			"obj-1::obj-49::obj-5::obj-5::obj-12" : [ "live.text[21]", "live.text", 0 ],
			"obj-1::obj-49::obj-5::obj-5::obj-13" : [ "live.numbox[16]", "live.numbox", 0 ],
			"obj-1::obj-49::obj-5::obj-6::obj-12" : [ "live.text[22]", "live.text", 0 ],
			"obj-1::obj-49::obj-5::obj-6::obj-13" : [ "live.numbox[17]", "live.numbox", 0 ],
			"obj-1::obj-49::obj-5::obj-7::obj-12" : [ "live.text[23]", "live.text", 0 ],
			"obj-1::obj-49::obj-5::obj-7::obj-13" : [ "live.numbox[18]", "live.numbox", 0 ],
			"obj-1::obj-49::obj-5::obj-8::obj-13" : [ "live.numbox[19]", "live.numbox", 0 ],
			"obj-1::obj-49::obj-5::obj-8::obj-15" : [ "live.text[24]", "live.text", 0 ],
			"obj-1::obj-49::obj-5::obj-9::obj-13" : [ "live.numbox[20]", "live.numbox", 0 ],
			"obj-1::obj-49::obj-5::obj-9::obj-15" : [ "live.text[25]", "live.text", 0 ],
			"obj-1::obj-49::obj-61::obj-30::obj-13" : [ "live.numbox[310]", "live.numbox", 0 ],
			"obj-1::obj-49::obj-61::obj-30::obj-15" : [ "live.text[263]", "live.text", 0 ],
			"obj-1::obj-49::obj-61::obj-31::obj-13" : [ "live.numbox[1]", "live.numbox", 0 ],
			"obj-1::obj-49::obj-61::obj-31::obj-15" : [ "live.text[1]", "live.text", 0 ],
			"obj-1::obj-49::obj-61::obj-3::obj-12" : [ "live.text[20]", "live.text", 0 ],
			"obj-1::obj-49::obj-61::obj-3::obj-13" : [ "live.numbox[13]", "live.numbox", 0 ],
			"obj-1::obj-49::obj-61::obj-49::obj-13" : [ "live.numbox[87]", "live.numbox", 0 ],
			"obj-1::obj-49::obj-61::obj-49::obj-15" : [ "live.text[171]", "live.text", 0 ],
			"obj-1::obj-49::obj-61::obj-4::obj-12" : [ "live.text[19]", "live.text", 0 ],
			"obj-1::obj-49::obj-61::obj-4::obj-13" : [ "live.numbox[12]", "live.numbox", 0 ],
			"obj-1::obj-49::obj-61::obj-7::obj-12" : [ "live.text[34]", "live.text", 0 ],
			"obj-1::obj-49::obj-61::obj-7::obj-13" : [ "live.numbox[11]", "live.numbox", 0 ],
			"obj-1::obj-49::obj-71::obj-14::obj-13" : [ "live.numbox[14]", "live.numbox", 0 ],
			"obj-1::obj-49::obj-71::obj-14::obj-15" : [ "live.text[7]", "live.text", 0 ],
			"obj-1::obj-49::obj-71::obj-15::obj-13" : [ "live.numbox[15]", "live.numbox", 0 ],
			"obj-1::obj-49::obj-71::obj-15::obj-15" : [ "live.text[8]", "live.text", 0 ],
			"obj-1::obj-49::obj-71::obj-3::obj-12" : [ "live.text[33]", "live.text", 0 ],
			"obj-1::obj-49::obj-71::obj-3::obj-13" : [ "live.numbox[10]", "live.numbox", 0 ],
			"obj-1::obj-49::obj-71::obj-49::obj-13" : [ "live.numbox[3]", "live.numbox", 0 ],
			"obj-1::obj-49::obj-71::obj-49::obj-15" : [ "live.text[6]", "live.text", 0 ],
			"obj-1::obj-49::obj-71::obj-4::obj-12" : [ "live.text[32]", "live.text", 0 ],
			"obj-1::obj-49::obj-71::obj-4::obj-13" : [ "live.numbox[26]", "live.numbox", 0 ],
			"obj-1::obj-49::obj-71::obj-7::obj-12" : [ "live.text[31]", "live.text", 0 ],
			"obj-1::obj-49::obj-71::obj-7::obj-13" : [ "live.numbox[25]", "live.numbox", 0 ],
			"parameterbanks" : 			{
				"0" : 				{
					"index" : 0,
					"name" : "",
					"parameters" : [ "-", "-", "-", "-", "-", "-", "-", "-" ]
				}

			}
,
			"parameter_overrides" : 			{
				"obj-1::obj-26" : 				{
					"parameter_invisible" : 0,
					"parameter_longname" : "live.text[16]",
					"parameter_modmode" : 0,
					"parameter_type" : 2,
					"parameter_unitstyle" : 10
				}
,
				"obj-1::obj-28" : 				{
					"parameter_invisible" : 0,
					"parameter_longname" : "live.text[5]",
					"parameter_modmode" : 0,
					"parameter_type" : 2,
					"parameter_unitstyle" : 10
				}
,
				"obj-1::obj-30" : 				{
					"parameter_invisible" : 0,
					"parameter_longname" : "live.text[15]",
					"parameter_modmode" : 0,
					"parameter_type" : 2,
					"parameter_unitstyle" : 10
				}
,
				"obj-1::obj-31" : 				{
					"parameter_invisible" : 0,
					"parameter_longname" : "live.text[17]",
					"parameter_modmode" : 0,
					"parameter_type" : 2,
					"parameter_unitstyle" : 10
				}
,
				"obj-1::obj-36" : 				{
					"parameter_longname" : "live.text[859]"
				}
,
				"obj-1::obj-4" : 				{
					"parameter_longname" : "live.text[953]"
				}
,
				"obj-1::obj-41" : 				{
					"parameter_longname" : "live.text[858]"
				}
,
				"obj-1::obj-45" : 				{
					"parameter_longname" : "live.text[931]"
				}
,
				"obj-1::obj-49::obj-5::obj-12::obj-13" : 				{
					"parameter_longname" : "live.numbox[21]"
				}
,
				"obj-1::obj-49::obj-5::obj-12::obj-15" : 				{
					"parameter_longname" : "live.text[26]"
				}
,
				"obj-1::obj-49::obj-5::obj-25::obj-13" : 				{
					"parameter_longname" : "live.numbox[8]"
				}
,
				"obj-1::obj-49::obj-5::obj-25::obj-15" : 				{
					"parameter_longname" : "live.text[9]"
				}
,
				"obj-1::obj-49::obj-5::obj-4::obj-12" : 				{
					"parameter_longname" : "live.text[18]"
				}
,
				"obj-1::obj-49::obj-5::obj-4::obj-13" : 				{
					"parameter_longname" : "live.numbox[9]"
				}
,
				"obj-1::obj-49::obj-5::obj-5::obj-12" : 				{
					"parameter_longname" : "live.text[21]"
				}
,
				"obj-1::obj-49::obj-5::obj-5::obj-13" : 				{
					"parameter_longname" : "live.numbox[16]"
				}
,
				"obj-1::obj-49::obj-5::obj-6::obj-12" : 				{
					"parameter_longname" : "live.text[22]"
				}
,
				"obj-1::obj-49::obj-5::obj-6::obj-13" : 				{
					"parameter_longname" : "live.numbox[17]"
				}
,
				"obj-1::obj-49::obj-5::obj-7::obj-12" : 				{
					"parameter_longname" : "live.text[23]"
				}
,
				"obj-1::obj-49::obj-5::obj-7::obj-13" : 				{
					"parameter_longname" : "live.numbox[18]"
				}
,
				"obj-1::obj-49::obj-5::obj-8::obj-13" : 				{
					"parameter_longname" : "live.numbox[19]"
				}
,
				"obj-1::obj-49::obj-5::obj-8::obj-15" : 				{
					"parameter_longname" : "live.text[24]"
				}
,
				"obj-1::obj-49::obj-5::obj-9::obj-13" : 				{
					"parameter_longname" : "live.numbox[20]"
				}
,
				"obj-1::obj-49::obj-5::obj-9::obj-15" : 				{
					"parameter_longname" : "live.text[25]"
				}
,
				"obj-1::obj-49::obj-61::obj-31::obj-13" : 				{
					"parameter_longname" : "live.numbox[1]"
				}
,
				"obj-1::obj-49::obj-61::obj-31::obj-15" : 				{
					"parameter_longname" : "live.text[1]"
				}
,
				"obj-1::obj-49::obj-61::obj-3::obj-12" : 				{
					"parameter_longname" : "live.text[20]"
				}
,
				"obj-1::obj-49::obj-61::obj-3::obj-13" : 				{
					"parameter_longname" : "live.numbox[13]"
				}
,
				"obj-1::obj-49::obj-61::obj-49::obj-13" : 				{
					"parameter_longname" : "live.numbox[87]"
				}
,
				"obj-1::obj-49::obj-61::obj-49::obj-15" : 				{
					"parameter_longname" : "live.text[171]"
				}
,
				"obj-1::obj-49::obj-61::obj-4::obj-12" : 				{
					"parameter_longname" : "live.text[19]"
				}
,
				"obj-1::obj-49::obj-61::obj-4::obj-13" : 				{
					"parameter_longname" : "live.numbox[12]"
				}
,
				"obj-1::obj-49::obj-61::obj-7::obj-12" : 				{
					"parameter_longname" : "live.text[34]"
				}
,
				"obj-1::obj-49::obj-61::obj-7::obj-13" : 				{
					"parameter_longname" : "live.numbox[11]"
				}
,
				"obj-1::obj-49::obj-71::obj-14::obj-13" : 				{
					"parameter_longname" : "live.numbox[14]"
				}
,
				"obj-1::obj-49::obj-71::obj-14::obj-15" : 				{
					"parameter_longname" : "live.text[7]"
				}
,
				"obj-1::obj-49::obj-71::obj-15::obj-13" : 				{
					"parameter_longname" : "live.numbox[15]"
				}
,
				"obj-1::obj-49::obj-71::obj-15::obj-15" : 				{
					"parameter_longname" : "live.text[8]"
				}
,
				"obj-1::obj-49::obj-71::obj-3::obj-12" : 				{
					"parameter_longname" : "live.text[33]"
				}
,
				"obj-1::obj-49::obj-71::obj-3::obj-13" : 				{
					"parameter_longname" : "live.numbox[10]"
				}
,
				"obj-1::obj-49::obj-71::obj-49::obj-13" : 				{
					"parameter_longname" : "live.numbox[3]"
				}
,
				"obj-1::obj-49::obj-71::obj-49::obj-15" : 				{
					"parameter_longname" : "live.text[6]"
				}
,
				"obj-1::obj-49::obj-71::obj-4::obj-12" : 				{
					"parameter_longname" : "live.text[32]"
				}
,
				"obj-1::obj-49::obj-71::obj-4::obj-13" : 				{
					"parameter_longname" : "live.numbox[26]"
				}
,
				"obj-1::obj-49::obj-71::obj-7::obj-12" : 				{
					"parameter_longname" : "live.text[31]"
				}
,
				"obj-1::obj-49::obj-71::obj-7::obj-13" : 				{
					"parameter_longname" : "live.numbox[25]"
				}

			}
,
			"inherited_shortname" : 1
		}
,
		"dependency_cache" : [ 			{
				"name" : "a-mo.settings.maxpat",
				"bootpath" : "~/Documents/Max 9/Packages/modulo/misc/abstractions",
				"patcherrelativepath" : "../../../modulo/misc/abstractions",
				"type" : "JSON",
				"implicit" : 1
			}
, 			{
				"name" : "mo.denoise.maxpat",
				"bootpath" : "~/Documents/Max 9/Packages/modulo-plus/patchers/transform",
				"patcherrelativepath" : "../../patchers/transform",
				"type" : "JSON",
				"implicit" : 1
			}
, 			{
				"name" : "mo.joycon.maxpat",
				"bootpath" : "~/Documents/Max 9/Packages/modulo-plus/patchers/input",
				"patcherrelativepath" : "../../patchers/input",
				"type" : "JSON",
				"implicit" : 1
			}
, 			{
				"name" : "mo.resize.js",
				"bootpath" : "~/Documents/Max 9/Packages/modulo/misc/js",
				"patcherrelativepath" : "../../../modulo/misc/js",
				"type" : "TEXT",
				"implicit" : 1
			}
, 			{
				"name" : "mo.smooth.maxpat",
				"bootpath" : "~/Documents/Max 9/Packages/modulo/patchers/transform",
				"patcherrelativepath" : "../../../modulo/patchers/transform",
				"type" : "JSON",
				"implicit" : 1
			}
 ],
		"autosave" : 0
	}

}
